HIERARCHY
ROOT Hips
{
  OFFSET 265.287 66.7526 -254.649
  CHANNELS 6 Xposition Yposition Zposition Zrotation Xrotation Yrotation
  JOINT LeftUpLeg
  {
    OFFSET 8.64259 1.95398 -2.38835
    CHANNELS 3 Zrotation Xrotation Yrotation
    JOINT LeftLeg
    {
      OFFSET 43.7702 0 0
      CHANNELS 3 Zrotation Xrotation Yrotation
      JOINT LeftFoot
      {
        OFFSET 40.6238 0 0
        CHANNELS 3 Zrotation Xrotation Yrotation
        JOINT LeftToeBase
        {
          OFFSET 12.7242 0 0
          CHANNELS 3 Zrotation Xrotation Yrotation
          End Site
          {
            OFFSET 0 0 0
          }
        }
      }
    }
  }
  JOINT RightUpLeg
  {
    OFFSET -8.2249 1.95398 -2.59336
    CHANNELS 3 Zrotation Xrotation Yrotation
    JOINT RightLeg
    {
      OFFSET 43.5653 0 0
      CHANNELS 3 Zrotation Xrotation Yrotation
      JOINT RightFoot
      {
        OFFSET 40.6238 0 0
        CHANNELS 3 Zrotation Xrotation Yrotation
        JOINT RightToeBase
        {
          OFFSET 12.7242 0 0
          CHANNELS 3 Zrotation Xrotation Yrotation
          End Site
          {
            OFFSET 0 0 0
          }
        }
      }
    }
  }
  JOINT Spine
  {
    OFFSET 0.165834 0.87714 6.61349
    CHANNELS 3 Zrotation Xrotation Yrotation
    JOINT Spine1
    {
      OFFSET 7.38963 1.71661e-005 0
      CHANNELS 3 Zrotation Xrotation Yrotation
      JOINT Spine2
      {
        OFFSET 11.9445 1.14441e-005 0
        CHANNELS 3 Zrotation Xrotation Yrotation
        JOINT Spine3
        {
          OFFSET 14.7254 4.19617e-005 0
          CHANNELS 3 Zrotation Xrotation Yrotation
          JOINT Spine4
          {
            OFFSET 10.9679 0 0
            CHANNELS 3 Zrotation Xrotation Yrotation
            JOINT RightShoulder
            {
              OFFSET 2.46616 -1.6653 3.69651
              CHANNELS 3 Zrotation Xrotation Yrotation
              JOINT RightArm
              {
                OFFSET 13.0012 0 0
                CHANNELS 3 Zrotation Xrotation Yrotation
                JOINT RightForeArm
                {
                  OFFSET 28.7848 1.52588e-005 0
                  CHANNELS 3 Zrotation Xrotation Yrotation
                  JOINT RightHand
                  {
                    OFFSET 26.5688 1.52588e-005 0
                    CHANNELS 3 Zrotation Xrotation Yrotation
                    End Site
                    {
                      OFFSET 0 0 0
                    }
                  }
                }
              }
            }
            JOINT LeftShoulder
            {
              OFFSET 2.38034 -1.29275 -3.7523
              CHANNELS 3 Zrotation Xrotation Yrotation
              JOINT LeftArm
              {
                OFFSET 16.3182 6.10351e-005 0
                CHANNELS 3 Zrotation Xrotation Yrotation
                JOINT LeftForeArm
                {
                  OFFSET 27.0901 0 0
                  CHANNELS 3 Zrotation Xrotation Yrotation
                  JOINT LeftHand
                  {
                    OFFSET 24.5451 1.52588e-005 0
                    CHANNELS 3 Zrotation Xrotation Yrotation
                    End Site
                    {
                      OFFSET 0 0 0
                    }
                  }
                }
              }
            }
            JOINT Neck
            {
              OFFSET 5.0226 -0.0266342 0
              CHANNELS 3 Zrotation Xrotation Yrotation
              JOINT Head
              {
                OFFSET 6.69364 2.86102e-005 0
                CHANNELS 3 Zrotation Xrotation Yrotation
                End Site
                {
                  OFFSET 0 0 0
                }
              }
            }
          }
        }
      }
    }
  }
}
MOTION
Frames:	14
Frame Time:	0.0416667
182.71 35.4884 -194.739 -125.041 -52.0978 -117.973 175.384 77.3748 110.136 -156.041 30.874 0.569828 75.9467 8.94418 22.7803 53.7876 -7.4772 1.85806 -133.118 69.8724 17.8694 -152.959 -17.6071 -3.14046 69.4962 3.63488 26.7955 53.5682 -3.14176 4.08498 0.651371 12.0758 -90.7839 2.72605 0.993555 -1.51828 -8.94548 0.92577 -1.56054 -31.4791 1.4039 -1.14953 -11.4665 1.40389 -1.14954 96.6902 -41.5315 -91.6754 -4.8037 -32.3704 -50.7196 -80.4865 9.23955 -86.0423 25.0188 12.8816 47.7798 -88.6942 -37.5775 77.7272 -8.90693 18.9086 -65.6282 55.0334 23.3998 -68.6489 -21.0113 -0.267784 -3.28975 4.48977 3.81815 -0.776003 21.2425 6.30752 11.1841 
182.884 35.7334 -194.662 -127.576 -52.6587 -121.122 -173.821 76.7589 97.738 -155.627 27.5329 0.861131 75.3833 8.69053 21.7358 54.0733 -7.66155 1.08399 -135.14 67.3936 18.4185 -152.803 -18.3132 -3.00586 69.753 3.4685 26.3845 52.4179 -2.85567 5.74384 0.483431 12.2405 -90.8244 2.3944 0.644395 -1.59797 -9.27739 0.573462 -1.62477 -31.808 1.09483 -1.3305 -11.7953 1.09483 -1.3305 97.0128 -40.6155 -91.2281 -3.42514 -32.1973 -50.6993 -81.5488 7.40963 -85.0823 23.3279 12.0627 47.9951 -89.4234 -38.9644 76.8251 -8.59491 18.3546 -65.7451 55.3653 23.7905 -69.1876 -21.257 0.161785 -5.89105 4.93173 2.76172 -0.760666 18.9924 5.09853 11.4006 
182.785 35.7185 -194.581 -126.65 -52.7978 -120.759 -163.119 77.2509 87.2091 -155.35 27.3563 1.04372 73.1496 8.48621 25.6906 57.2199 -8.69358 0.496649 -132.854 68.0561 16.3011 -152.94 -18.2614 -2.99998 68.9098 3.391 25.1346 53.8158 -2.91762 6.42921 0.480302 12.1837 -90.7766 2.50811 0.656082 -1.50618 -9.16357 0.589166 -1.53359 -31.6949 1.07838 -1.23943 -11.6823 1.07839 -1.23944 96.8962 -40.8865 -91.3987 -6.83348 -33.9017 -51.7789 -74.5028 7.81015 -84.2605 16.0781 9.13776 52.2694 -89.7542 -38.8199 76.2229 -8.57155 18.2246 -65.3281 55.7551 23.5878 -69.4561 -21.5259 0.104615 -5.52341 3.89128 2.5838 -1.66204 19.911 5.36759 12.3363 
182.776 35.6971 -194.442 -125.17 -53.168 -119.662 -161.765 77.8492 85.9358 -155.174 27.6637 1.11847 73.3065 8.02219 23.9517 58.2783 -8.64314 2.75266 -130.464 68.4619 13.8183 -153.114 -18.6853 -3.05554 69.8311 3.25646 25.1982 52.7313 -2.94952 5.1468 0.432452 12.0893 -90.6915 2.69668 0.592661 -1.34289 -8.97486 0.532994 -1.36767 -31.5071 0.968835 -1.10273 -11.4944 0.968841 -1.10273 96.6446 -41.3988 -91.7713 -10.3312 -36.3999 -52.6229 -63.8713 9.60427 -84.692 3.31706 2.17695 56.3251 -89.1604 -38.2017 77.0802 -8.98783 18.4291 -65.1661 55.9503 23.8163 -69.5131 -21.6535 0.386494 -7.17766 5.26349 3.14576 -1.08413 18.4483 5.43838 11.1915 
182.779 35.6395 -194.372 -124.707 -53.4142 -119.001 -165.158 78.4862 89.2961 -155.171 27.7535 1.08329 73.2383 7.40821 22.1598 58.7046 -8.6282 3.56986 -130.488 69.4938 13.6205 -152.943 -18.3492 -3.16577 68.1123 3.45028 24.1932 56.0432 -2.99182 7.37489 0.4174 12.0807 -90.7116 2.71372 0.554559 -1.38269 -8.95787 0.493164 -1.40576 -31.4896 0.944466 -1.15214 -11.4769 0.944451 -1.15215 96.5025 -41.2136 -92.0429 -9.0326 -38.1985 -51.8913 -51.7873 6.10473 -82.7548 -16.1437 -8.76543 53.4527 -88.997 -37.9194 77.2887 -9.25307 18.2621 -65.1207 55.3205 23.1929 -69.3606 -21.6797 0.238857 -6.3061 4.16046 2.96459 -2.49481 20.0177 5.97685 12.6893 
182.713 35.8139 -194.331 -124.665 -53.4933 -119.073 -161.355 77.9774 85.3836 -155.275 27.3538 1.09727 73.6639 8.64994 25.0544 57.5641 -8.63326 1.54711 -131.132 68.8402 14.3025 -153.067 -18.9801 -3.05565 70.3299 3.00324 24.8436 52.5095 -3.03524 4.06661 0.442092 12.1174 -90.7819 2.64019 0.576885 -1.51893 -9.03154 0.509487 -1.54286 -31.5623 1.00667 -1.2754 -11.5497 1.00669 -1.2754 96.7975 -40.8458 -91.5763 -7.56233 -39.3476 -51.443 -36.2748 5.5749 -81.6643 -39.5828 -17.5513 41.8373 -89.3927 -38.9901 76.8845 -8.10536 18.1109 -65.6817 54.3952 22.8932 -69.0708 -22.3551 0.0732915 -5.29829 2.71458 2.77161 -2.37955 21.8732 6.204 13.7953 
182.69 35.789 -194.249 -124.556 -53.3996 -118.845 -161.722 78.0262 85.8838 -155.358 27.7221 1.0625 73.0255 8.44448 26.0949 58.1602 -8.90506 0.962013 -131.398 68.978 14.7234 -153.131 -19.4797 -3.05177 70.2257 2.91625 24.1036 53.2306 -3.11654 3.97232 0.464505 12.1226 -90.7817 2.63012 0.621815 -1.51781 -9.04159 0.554418 -1.54371 -31.5727 1.04919 -1.26083 -11.56 1.0492 -1.26082 96.8674 -40.6728 -91.476 -14.9529 -41.7693 -55.4994 -23.293 8.30452 -83.1252 -59.5775 -23.3386 34.893 -89.2309 -38.6125 77.0639 -8.43008 18.2871 -65.6879 54.7111 23.116 -69.1467 -22.2039 0.0739561 -5.3094 3.91278 2.73916 -2.42483 20.2884 5.98639 13.6841 
182.694 35.8436 -194.221 -124.534 -53.3075 -118.897 -160.835 77.7854 85.0177 -155.405 27.6626 1.06759 73.3323 8.85295 26.6823 57.747 -8.81674 0.739536 -131.352 68.5792 14.7821 -153.031 -19.3781 -3.02892 70.3935 3.05805 24.8076 52.9311 -3.10551 3.75582 0.463581 12.1426 -90.7678 2.59021 0.625619 -1.49022 -9.08146 0.559433 -1.5163 -31.6128 1.04454 -1.23335 -11.6001 1.04454 -1.23336 96.802 -40.5572 -91.6056 -18.8965 -43.0759 -58.4061 -7.81656 11.1278 -81.1326 -76.9144 -20.1112 20.4153 -89.3582 -38.5502 76.8294 -8.59128 18.0882 -65.5647 55.2402 23.3081 -69.3782 -21.7496 0.193279 -6.03828 4.98908 2.62935 -2.34088 18.921 5.68239 13.5329 
182.679 35.8417 -194.166 -124.304 -53.2744 -118.456 -162.245 78.0085 86.5026 -155.46 28.0156 1.02389 73.0844 8.69201 26.9335 57.8829 -8.89708 0.500016 -131.866 68.833 15.3881 -153.025 -19.662 -3.04297 70.5758 2.96907 24.5052 53.1014 -3.16874 3.32096 0.447184 12.0955 -90.7069 2.68427 0.616114 -1.37251 -8.98729 0.55515 -1.3983 -31.5194 1.00011 -1.12394 -11.5068 1.00012 -1.12393 96.3778 -41.1441 -92.2692 -18.9736 -44.4021 -59.0278 3.16691 14.2966 -79.6849 -85.0635 -13.9465 10.2337 -89.0262 -37.6908 77.1792 -9.29888 18.3118 -64.8882 55.1989 23.1161 -69.2902 -21.5232 0.191757 -6.04306 4.48991 2.84964 -2.63213 18.8997 5.75764 12.6369 
182.685 35.8462 -194.139 -124.222 -53.2998 -118.428 -162.627 78.0382 86.8335 -155.457 27.7433 1.04642 73.3985 8.67543 26.0397 57.6902 -8.7595 0.98784 -131.714 69.1092 15.1976 -152.99 -18.9901 -3.0692 69.7482 3.07026 24.4589 53.9085 -3.17285 4.14113 0.435141 12.1092 -90.7242 2.65676 0.58546 -1.4064 -9.01485 0.523017 -1.43081 -31.5466 0.981052 -1.16547 -11.5339 0.98105 -1.16548 96.4909 -40.8386 -92.1129 -20.2468 -45.2022 -60.0347 10.3324 16.8108 -80.9354 -89.0804 -9.84143 4.98408 -89.2793 -38.2286 76.8815 -8.50064 18.0781 -64.914 55.1577 22.8991 -69.304 -21.288 0.194389 -6.0597 4.37317 2.9484 -2.72103 19.117 6.03308 13.3382 
182.723 35.9562 -194.21 -124.035 -53.2263 -118.626 -160.082 77.8389 84.3765 -155.287 27.2271 1.12547 73.4691 8.74839 25.8002 57.477 -8.69748 0.973492 -131.029 69.2226 14.5072 -152.879 -18.3751 -3.06673 69.7387 2.92568 24.5438 53.6581 -3.15778 4.02641 0.47161 12.1415 -90.753 2.5924 0.647514 -1.46096 -9.07925 0.582601 -1.48804 -31.6109 1.05662 -1.19887 -11.5983 1.05663 -1.19887 96.8652 -40.3671 -91.5187 -20.792 -45.4586 -60.3377 12.8139 18.0072 -81.0284 -91.1139 -7.44156 2.26186 -89.5027 -38.8137 76.6509 -8.20753 18.2221 -65.5531 57.6263 23.666 -70.4343 -19.6486 0.624725 -9.36176 4.3319 2.75414 -1.14855 19.6753 5.42127 12.3343 
182.779 36.0706 -194.313 -124.652 -53.587 -119.566 -157.457 77.5251 81.2044 -155.006 26.4566 1.17891 73.4926 8.9371 25.8225 57.2559 -8.72643 0.362003 -131.655 69.3107 14.5386 -152.899 -20.0612 -3.0758 69.2504 2.62377 21.883 55.911 -3.37276 4.27725 0.385022 12.1334 -90.6511 2.60818 0.514249 -1.26404 -9.06331 0.45814 -1.28544 -31.5956 0.870355 -1.05108 -11.583 0.870356 -1.05108 96.6546 -40.9444 -91.8138 -20.7507 -46.1726 -60.0954 18.5706 19.0583 -84.0899 -91.3073 -5.51165 0.326948 -88.7692 -37.4219 77.5572 -9.32156 18.7958 -65.362 57.6967 22.8926 -70.6539 -20.9648 0.469014 -7.96453 3.48856 2.81665 -3.38131 20.0523 6.20566 13.7858 
182.832 36.0951 -194.469 -125.026 -53.5593 -119.759 -157.346 77.1856 81.128 -154.883 26.3294 1.18255 74.0788 9.46431 26.0083 56.9131 -8.63671 0.260204 -132.237 69.8518 15.0102 -153.089 -20.7676 -3.08745 70.0031 1.89194 20.0529 54.0703 -3.24763 3.61938 0.393438 12.2298 -90.6998 2.41527 0.513025 -1.35743 -9.2563 0.452792 -1.37869 -31.788 0.897241 -1.14054 -11.7753 0.897246 -1.14054 97.2625 -39.1727 -90.9619 -19.0866 -45.9133 -60.3469 16.4875 18.1927 -83.2542 -91.4562 -4.55453 -0.628213 -88.161 -36.8906 78.4891 -9.34001 18.8464 -66.0282 56.7142 21.3765 -70.6119 -20.8871 0.237548 -6.38249 3.6305 2.59834 -3.20492 19.3407 5.87233 13.7508 
183.013 35.8595 -194.805 -126.049 -53.5151 -120.711 -159.288 77.3442 82.7777 -154.883 27.3338 1.10268 73.8855 9.1331 25.7319 56.7177 -8.43132 1.21368 -132.532 69.7613 15.0525 -153.039 -19.839 -3.11164 69.3158 2.08232 20.656 55.8331 -3.26471 5.20652 0.352251 12.3905 -90.6818 2.09341 0.439676 -1.32127 -9.57816 0.381098 -1.33935 -32.1096 0.816419 -1.12809 -12.097 0.81642 -1.12808 97.495 -37.8325 -90.7046 -15.9983 -45.5476 -59.156 14.0782 17.0813 -83.1935 -89.474 -3.69666 -1.34425 -87.0419 -34.9013 80.0133 -10.9141 19.2598 -66.8574 58.0485 19.2012 -71.8723 -21.8844 -0.229813 -3.55324 0.606693 1.86809 -4.42485 20.8176 5.45688 13.8034 
